<?xml version="1.0" encoding="UTF-8" standalone="no"?>
<!DOCTYPE svg PUBLIC "-//W3C//DTD SVG 20010904//EN" "http://www.w3.org/TR/2001/REC-SVG-20010904/DTD/svg10.dtd">
<svg version="1.0" xmlns="http://www.w3.org/2000/svg" width="360.0000000pt" height="360.000000pt" viewBox="0 0 620.000000 620.000000" preserveAspectRatio="xMidYMid meet" style="transform: rotateY(180deg)">
<g transform="translate(0.000000,1280.000000) scale(0.100000,-0.100000)" fill="#ffffff" stroke="none" font-family="Gentium Plus" font-size="600">
  <path id="01" d="M2784 12358 c3 -39 8 -74 10 -76 3 -2 14 -1 26 3 18 6 21 12 16 37 -3 17 -6 48 -6 69 0 35 -2 39 -26 39 l-27 0 7 -72z"/>
  <path id="02" d="M2511 12381 c-11 -7 -12 -20 -1 -75 10 -54 16 -66 31 -66 27 0 30 16 16 84 -13 61 -22 72 -46 57z"/>
  <path id="03" d="M2227 12303 c-3 -5 4 -36 14 -70 15 -49 24 -63 39 -63 30 0 31 13 9 79 -16 45 -26 61 -39 61 -10 0 -21 -3 -23 -7z"/>
  <path id="04" d="M1976 12207 c-19 -14 -19 -15 3 -68 28 -65 33 -71 54 -63 22 8 21 18 -11 87 -25 54 -28 57 -46 44z"/>
  <path id="05" d="M1545 12265 c-48 -163 35 -341 189 -410 28 -13 69 -25 91 -27 39 -3 40 -2 54 37 7 22 14 76 15 120 0 67 -4 89 -26 137 -46 99 -159 184 -263 195 l-44 5 -16 -57z"/>
  <path id="06" d="M1478 11918 c-14 -12 -11 -20 27 -70 39 -52 44 -56 61 -43 18 12 17 16 -20 69 -42 61 -44 62 -68 44z"/>
  <path id="07" d="M1258 11743 c-15 -17 -12 -22 33 -73 46 -50 50 -53 66 -38 15 15 14 19 -14 55 -17 21 -40 46 -50 56 -19 16 -20 16 -35 0z"/>
  <path id="08" d="M1056 11541 c-16 -18 -14 -21 39 -66 46 -39 58 -45 70 -35 8 7 15 15 15 19 0 3 -24 27 -54 53 -52 45 -54 46 -70 29z"/>
  <path id="09" d="M880 11321 c-5 -11 -10 -22 -10 -24 0 -3 25 -22 56 -43 54 -37 56 -38 70 -20 8 11 13 20 11 21 -1 1 -28 21 -59 43 -54 40 -58 41 -68 23z"/>
  <path id="10" d="M515 11247 c-39 -13 -40 -14 -40 -58 2 -94 86 -207 193 -257 49 -23 70 -27 147 -27 68 0 98 5 123 18 32 17 33 21 27 55 -18 102 -93 205 -179 250 -42 21 -67 26 -141 29 -54 1 -106 -3 -130 -10z"/>
  <path id="11" d="M591 10821 c-9 -17 -3 -22 55 -47 55 -23 67 -25 75 -13 15 24 11 28 -47 54 -68 30 -71 30 -83 6z"/>
  <path id="12" d="M497 10574 c-4 -4 -7 -15 -7 -25 0 -14 16 -23 63 -38 67 -20 77 -19 77 9 0 13 -14 23 -52 36 -29 9 -58 19 -64 21 -5 2 -13 0 -17 -3z"/>
  <path id="13" d="M416 10284 c-9 -23 -6 -24 64 -41 66 -15 80 -12 80 16 0 14 -13 21 -57 30 -73 14 -80 14 -87 -5z"/>
  <path id="14" d="M370 10001 c0 -25 5 -27 82 -35 51 -5 57 -4 63 15 4 11 5 22 3 25 -2 2 -37 7 -76 10 -69 7 -72 6 -72 -15z"/>
  <path id="15" d="M232 9849 c-48 -15 -77 -33 -118 -73 -30 -29 -54 -59 -54 -68 0 -24 87 -97 150 -126 71 -33 141 -39 216 -17 91 26 204 110 204 150 0 20 -98 105 -146 127 -68 30 -174 33 -252 7z"/>
  <path id="16" d="M430 9461 c-48 -5 -55 -9 -58 -30 -4 -24 -3 -24 68 -18 40 3 74 8 77 11 9 8 -8 46 -20 44 -7 -1 -37 -4 -67 -7z"/>
  <path id="17" d="M472 9185 c-63 -16 -65 -17 -55 -42 8 -19 11 -19 76 -5 60 13 68 18 65 36 -4 26 -18 28 -86 11z"/>
  <path id="18" d="M550 8915 c-62 -21 -73 -35 -51 -58 4 -4 35 2 69 14 46 15 62 26 62 39 0 29 -10 29 -80 5z"/>
  <path id="19" d="M639 8652 c-51 -24 -56 -29 -47 -48 l10 -22 57 25 c67 30 74 35 65 56 -8 22 -18 21 -85 -11z"/>
  <path id="20" d="M749 8520 c-142 -24 -272 -158 -281 -290 l-3 -45 45 -12 c25 -6 79 -12 121 -12 66 -1 84 3 137 30 34 17 78 49 98 72 47 54 87 141 88 191 1 35 -2 40 -34 51 -51 17 -118 23 -171 15z"/>
  <path id="21" d="M925 8175 c-56 -40 -62 -49 -45 -70 10 -12 21 -7 70 28 48 35 56 45 49 60 -13 23 -17 22 -74 -18z"/>
  <path id="22" d="M1091 7952 c-51 -45 -52 -48 -35 -64 18 -15 22 -13 73 32 47 42 53 51 42 64 -8 9 -16 16 -20 16 -3 0 -30 -22 -60 -48z"/>
  <path id="23" d="M1288 7756 c-45 -51 -47 -54 -30 -70 17 -15 20 -14 48 17 65 70 68 75 54 92 -7 8 -15 15 -19 14 -3 0 -27 -24 -53 -53z"/>
  <path id="24" d="M1502 7576 c-30 -40 -38 -56 -29 -65 6 -6 16 -11 22 -11 17 0 87 100 81 116 -10 26 -34 14 -74 -40z"/>
  <path id="25" d="M1759 7576 c-140 -50 -232 -181 -231 -331 0 -84 24 -155 53 -155 34 0 126 37 173 69 115 80 161 234 116 394 -10 33 -14 37 -43 37 -18 -1 -48 -7 -68 -14z"/>
  <path id="26" d="M1986 7304 c-31 -67 -31 -70 -7 -83 17 -9 22 -3 47 55 23 55 25 67 13 75 -23 14 -26 12 -53 -47z"/>
  <path id="27" d="M2241 7198 c-18 -58 -18 -64 -3 -75 9 -7 19 -13 22 -13 3 0 16 30 28 67 16 51 19 69 9 75 -26 17 -37 6 -56 -54z"/>
  <path id="28" d="M2510 7124 c-11 -55 -10 -68 1 -75 24 -15 33 -4 46 57 14 68 11 84 -16 84 -15 0 -21 -12 -31 -66z"/>
  <path id="29" d="M2786 7104 c-12 -87 -9 -104 18 -104 22 0 24 5 29 68 3 37 4 68 4 68 -1 1 -11 4 -23 8 -19 6 -22 2 -28 -40z"/>
  <path id="30" d="M3036 7230 c-26 -24 -60 -67 -74 -95 -24 -45 -27 -61 -27 -155 0 -94 3 -110 26 -155 28 -52 104 -135 125 -135 18 0 100 92 125 141 16 31 24 67 27 124 5 109 -19 175 -97 258 l-58 61 -47 -44z"/>
  <path id="31" d="M3348 7143 c-14 -4 -16 -13 -12 -51 9 -81 13 -92 34 -92 16 0 20 7 20 38 0 49 -11 112 -19 111 -3 -1 -14 -3 -23 -6z"/>
  <path id="32" d="M3606 7182 c-5 -8 18 -130 26 -138 3 -2 14 -1 25 3 19 8 19 11 5 76 -12 52 -19 67 -33 67 -10 0 -20 -4 -23 -8z"/>
  <path id="33" d="M3873 7254 c-8 -4 -5 -24 11 -72 19 -54 27 -66 42 -64 11 2 21 5 23 7 1 2 -7 33 -19 69 -20 62 -29 71 -57 60z"/>
  <path id="34" d="M4131 7351 c-12 -8 -9 -20 14 -74 26 -61 29 -65 50 -55 l23 10 -27 61 c-29 64 -37 72 -60 58z"/>
  <path id="35" d="M4283 7553 c-12 -26 -18 -65 -18 -123 0 -73 4 -93 28 -142 52 -105 153 -183 256 -195 l48 -5 14 48 c8 27 14 83 14 124 -1 132 -68 230 -199 290 -33 16 -76 31 -94 35 -30 6 -33 4 -49 -32z"/>
  <path id="36" d="M4606 7624 c-18 -13 -17 -16 19 -69 39 -56 54 -65 73 -42 8 9 -1 27 -32 69 -38 51 -43 55 -60 42z"/>
  <path id="37" d="M4816 7795 c-18 -14 -17 -17 29 -70 45 -53 48 -55 66 -39 17 16 16 18 -28 70 -26 30 -47 54 -47 54 -1 0 -10 -7 -20 -15z"/>
  <path id="38" d="M5004 7983 c-9 -15 -2 -26 41 -65 50 -46 53 -47 69 -29 16 18 14 21 -36 65 -29 25 -55 46 -58 46 -3 0 -10 -8 -16 -17z"/>
  <path id="39" d="M5176 8194 c-3 -9 -6 -17 -6 -19 0 -1 24 -21 54 -43 40 -30 56 -38 65 -29 20 20 12 34 -42 71 -59 41 -63 42 -71 20z"/>
  <path id="40" d="M5267 8499 c-71 -17 -79 -25 -72 -72 32 -188 236 -321 419 -272 85 22 88 26 69 88 -38 131 -112 214 -221 247 -67 21 -132 24 -195 9z"/>
  <path id="41" d="M5446 8663 c-8 -21 -4 -25 65 -56 l57 -25 10 23 c10 21 7 25 -49 49 -71 31 -75 31 -83 9z"/>
  <path id="42" d="M5546 8923 c-11 -27 -6 -31 56 -52 76 -26 74 -26 81 -1 6 23 -6 31 -80 53 -46 14 -52 14 -57 0z"/>
  <path id="43" d="M5615 9179 c-4 -11 -5 -22 -3 -23 1 -2 33 -10 70 -18 65 -14 68 -14 74 4 8 26 6 27 -63 43 -74 18 -71 18 -78 -6z"/>
  <path id="44" d="M5656 9447 c-3 -12 -4 -23 -2 -25 2 -1 36 -6 75 -9 68 -6 71 -5 71 16 0 25 -6 28 -82 34 -51 5 -57 3 -62 -16z"/>
  <path id="45" d="M5689 9841 c-57 -22 -109 -61 -144 -107 l-27 -36 48 -45 c74 -69 157 -105 245 -105 62 0 81 5 144 36 67 33 145 101 145 126 0 20 -86 96 -135 121 -68 33 -207 38 -276 10z"/>
  <path id="46" d="M5682 10013 c-29 -4 -32 -7 -26 -26 3 -12 7 -23 8 -24 0 0 31 1 69 4 62 5 67 7 67 29 0 22 -4 24 -42 22 -24 0 -58 -3 -76 -5z"/>
  <path id="47" d="M5658 10288 c-47 -10 -56 -20 -40 -46 7 -9 21 -10 68 -1 68 14 77 19 68 42 -7 19 -25 20 -96 5z"/>
  <path id="48" d="M5603 10559 c-61 -19 -72 -30 -55 -56 6 -10 23 -8 73 8 35 12 65 23 66 23 5 4 -10 46 -16 45 -3 0 -34 -9 -68 -20z"/>
  <path id="49" d="M5493 10814 c-55 -26 -58 -30 -44 -53 8 -12 20 -10 75 13 58 25 64 30 55 47 -12 24 -22 23 -86 -7z"/>
  <path id="50" d="M5418 11236 c-126 -52 -218 -170 -218 -281 0 -28 4 -33 38 -43 148 -44 295 -4 376 102 36 48 74 133 78 176 3 33 1 35 -42 52 -66 25 -162 23 -232 -6z"/>
  <path id="51" d="M5225 11299 c-27 -21 -50 -43 -49 -49 2 -25 5 -30 14 -30 17 0 110 73 110 86 0 6 -6 16 -12 22 -9 7 -27 -1 -63 -29z"/>
  <path id="52" d="M5044 11510 c-43 -41 -49 -50 -38 -65 12 -16 15 -16 41 3 15 11 40 33 56 49 26 28 27 30 10 46 -17 15 -22 12 -69 -33z"/>
  <path id="53" d="M4845 11705 c-26 -31 -46 -57 -44 -58 2 -2 11 -8 20 -15 13 -10 23 -3 62 42 44 51 45 54 28 70 -17 16 -21 13 -66 -39z"/>
  <path id="54" d="M4625 11875 c-36 -53 -37 -56 -19 -69 17 -13 22 -9 60 42 31 42 40 60 32 69 -19 23 -34 14 -73 -42z"/>
  <path id="55" d="M4465 12291 c-155 -73 -234 -258 -180 -421 17 -52 18 -52 52 -47 47 8 150 57 190 91 18 15 47 57 65 94 30 60 33 76 33 152 0 47 -6 102 -13 123 -12 34 -17 37 -50 37 -20 0 -64 -13 -97 -29z"/>
  <path id="56" d="M4145 12153 c-23 -54 -26 -66 -14 -74 23 -14 31 -6 60 58 l27 61 -23 10 c-21 10 -24 6 -50 -55z"/>
  <path id="57" d="M3905 12308 c-38 -105 -43 -127 -28 -132 27 -11 31 -6 49 47 9 28 19 57 21 64 3 6 -5 17 -16 23 -16 8 -22 8 -26 -2z"/>
  <path id="58" d="M3625 12368 c-27 -121 -27 -128 4 -128 14 0 21 15 33 68 13 60 13 68 -1 74 -26 11 -30 9 -36 -14z"/>
  <path id="59" d="M3346 12408 c-3 -13 -7 -44 -10 -70 -5 -41 -3 -48 15 -53 11 -4 23 -5 25 -2 3 3 8 37 11 76 6 68 5 71 -15 71 -14 0 -23 -8 -26 -22z"/>
  <path id="60" d="M3019 12681 c-61 -63 -89 -137 -89 -235 0 -40 7 -92 15 -117 18 -53 79 -135 117 -157 27 -16 28 -16 73 28 25 25 59 72 75 104 25 50 30 71 30 135 0 63 -5 86 -29 138 -32 67 -104 153 -129 153 -9 0 -37 -22 -63 -49z"/>
  <path id="mitte" d="M3005 9881 c-187 -84 -129 -361 75 -361 83 0 144 40 175 113 41 99 0 202 -100 248 -51 24 -99 24 -150 0z m105 -145 c6 -8 10 -25 8 -38 -2 -19 -9 -23 -38 -23 -29 0 -36 4 -38 23 -4 28 14 52 38 52 10 0 23 -7 30 -14z"/>
  <path id="sekunde" d="M3090 12190 c-4 -19 -21 -182 -39 -361 -32 -316 -32 -327 -14 -345 17 -17 18 -46 11 -639 -6 -611 -14 -963 -23 -977 -2 -4 -20 -15 -39 -24 -41 -19 -74 -77 -74 -126 1 -49 34 -114 68 -132 16 -8 32 -21 34 -28 2 -7 2 -143 -1 -303 l-6 -290 -45 -23 c-60 -32 -89 -59 -111 -107 -62 -135 30 -290 186 -312 70 -9 132 13 187 68 74 74 87 157 41 250 -27 51 -47 70 -122 111 l-31 17 0 287 0 287 53 51 c59 56 69 84 55 151 -9 42 -26 62 -107 127 -11 9 -13 140 -9 794 l4 783 27 29 c35 36 35 49 -3 416 -37 360 -34 338 -42 296z m8 -2467 c4 -16 1 -30 -9 -40 -20 -21 -63 -10 -70 18 -3 12 2 28 13 39 24 24 58 15 66 -17z m53 -851 c49 -36 65 -69 65 -128 -2 -86 -55 -143 -141 -151 -98 -10 -173 56 -173 150 0 74 41 132 105 150 36 10 119 -2 144 -21z"/>
  <path id="minute" d="M3062 11764 c-21 -169 -28 -429 -28 -1109 l-1 -759 -32 -19 c-124 -73 -126 -248 -4 -323 l47 -30 7 -191 c4 -106 10 -241 14 -302 l6 -110 30 0 30 0 6 200 c4 110 7 248 8 306 l1 107 30 12 c42 17 87 72 100 121 22 81 -22 179 -94 213 l-36 17 0 432 c0 667 -17 1193 -46 1430 -8 61 -31 64 -38 5z m62 -2020 c34 -34 -6 -90 -48 -68 -35 19 -20 80 20 80 9 0 21 -5 28 -12z"/>
  <path id="stunde" d="M3062 10945 c-10 -15 -27 -574 -25 -825 l1 -219 -35 -18 c-78 -40 -119 -128 -98 -209 16 -59 51 -104 101 -127 32 -15 40 -23 41 -48 13 -250 14 -258 31 -269 35 -21 43 6 46 159 3 141 4 143 27 149 35 9 83 54 107 99 42 84 3 204 -80 243 l-38 19 -12 475 c-13 515 -18 573 -44 578 -9 2 -19 -1 -22 -7z m52 -1203 c34 -34 -6 -90 -48 -68 -35 19 -20 80 20 80 9 0 21 -5 28 -12z"/>
  <path id="nagel" d="M3029 9826 c-106 -60 -65 -228 54 -228 112 0 167 126 89 205 -36 35 -102 46 -143 23z"/>
<text transform="rotate(-150, 3080, 9709)" y="7800" x="2908">Α</text>
<text transform="rotate(-120, 3080, 9709)" y="7800" x="2920">Β</text>
<text transform="rotate(-90, 3080, 9709)" y="7800" x="2937">Γ</text>
<text transform="rotate(-60, 3080, 9709)" y="7800" x="2915">Δ</text>
<text transform="rotate(-30, 3080, 9709)" y="7800" x="2932">Ε</text>
<text transform="rotate(0, 3080, 9709)" y="7800" x="2932">Ϝ</text>
<text transform="rotate(30, 3080, 9709)" y="7800" x="2927">Ζ</text>
<text transform="rotate(60, 3080, 9709)" y="7800" x="2888">Η</text>
<text transform="rotate(90, 3080, 9709)" y="7800" x="2900">Θ</text>
<text transform="rotate(120, 3080, 9709)" y="7800" x="2982">Ι</text>
<text transform="rotate(150, 3080, 9709)" y="7800" x="2810">ΙΑ</text>
<text transform="rotate(180, 3080, 9709)" y="7800" x="2820">ΙΒ</text>
</g>
</svg>
