<?xml version="1.0" encoding="UTF-8" standalone="no"?>
<!DOCTYPE svg PUBLIC "-//W3C//DTD SVG 20010904//EN" "http://www.w3.org/TR/2001/REC-SVG-20010904/DTD/svg10.dtd">
<svg version="1.0" xmlns="http://www.w3.org/2000/svg" width="128.000000pt" height="128.000000pt" viewBox="0 0 1280.000000 1280.000000" preserveAspectRatio="xMidYMid meet">
<metadata>
Created by potrace 1.15, written by Peter Selinger 2001-2017
</metadata>
<g transform="translate(0.000000,1280.000000) scale(0.100000,-0.100000)" fill="#000000" stroke="none">
<path d="M6095 12794 c-27 -2 -115 -8 -195 -14 -1184 -87 -2373 -533 -3325 -1249 -1279 -961 -2152 -2346 -2454 -3891 -86 -440 -115 -757 -115 -1240 0 -402 11 -569 60 -910 176 -1229 695 -2358 1518 -3305 124 -142 429 -449 576 -578 602 -530 1275 -933 2023 -1211 522 -193 1061 -315 1662 -373 253 -24 857 -24 1110 0 599 58 1142 180 1662 373 248 92 358 140 628 274 1435 710 2555 1939 3130 3435 366 951 499 1990 384 3010 -211 1878 -1228 3546 -2814 4615 -279 188 -766 449 -1080 578 -634 260 -1216 403 -1905 468 -145 14 -754 26 -865 18z m836 -379 c1250 -112 2404 -594 3369 -1405 174 -146 564 -536 710 -710 1122 -1335 1612 -3048 1364 -4770 -160 -1114 -621 -2140 -1360 -3025 -206 -246 -568 -599 -839 -817 -832 -670 -1847 -1111 -2906 -1263 -324 -46 -499 -58 -869 -58 -371 -1 -554 12 -875 59 -1582 232 -2994 1073 -3960 2359 -512 682 -873 1466 -1060 2304 -99 447 -138 813 -139 1306 0 494 39 869 139 1316 212 950 635 1807 1269 2569 149 180 546 579 725 729 763 641 1634 1073 2590 1286 345 76 634 114 1056 139 126 8 627 -4 786 -19z"/>
<path d="M5975 12259 c-1285 -101 -2426 -572 -3406 -1406 -145 -123 -496 -474 -622 -622 -822 -964 -1301 -2113 -1402 -3364 -20 -244 -20 -690 0 -934 102 -1259 587 -2415 1419 -3383 124 -145 456 -475 601 -599 888 -759 1933 -1226 3080 -1376 461 -60 1049 -60 1510 0 937 123 1832 467 2590 997 1459 1020 2368 2599 2510 4361 19 244 19 690 0 934 -93 1145 -513 2232 -1209 3127 -218 280 -570 651 -815 859 -986 838 -2130 1309 -3420 1407 -154 11 -686 11 -836 -1z m730 -49 c1043 -57 2021 -377 2885 -944 187 -123 432 -307 595 -446 154 -133 502 -481 635 -635 296 -346 575 -766 776 -1168 344 -686 533 -1359 605 -2157 16 -177 17 -726 1 -910 -107 -1245 -554 -2336 -1346 -3290 -154 -186 -529 -562 -716 -716 -820 -681 -1750 -1110 -2785 -1283 -331 -55 -582 -75 -955 -75 -373 0 -624 20 -955 75 -1034 173 -1966 603 -2785 1283 -187 154 -562 530 -716 716 -294 354 -516 688 -715 1075 -361 703 -555 1382 -630 2205 -16 174 -16 746 0 920 73 803 260 1469 605 2158 202 402 479 820 776 1167 133 154 481 502 635 635 1135 971 2605 1471 4090 1390z"/>
<path d="M6095 12104 c-618 -40 -1167 -155 -1700 -356 -1619 -611 -2873 -1914 -3416 -3550 -298 -899 -367 -1878 -198 -2818 155 -858 511 -1680 1032 -2380 1289 -1733 3422 -2590 5547 -2229 1565 266 2949 1175 3822 2509 450 687 744 1463 867 2280 44 292 55 469 55 840 0 371 -11 548 -55 840 -66 439 -189 894 -349 1285 -33 83 -68 170 -78 195 -9 25 -19 47 -22 50 -3 3 -40 77 -84 165 -200 407 -480 832 -787 1190 -145 170 -478 499 -649 641 -915 762 -1967 1204 -3140 1319 -157 16 -706 28 -845 19z m764 -34 c57 -5 104 -11 105 -12 5 -7 -11 -269 -16 -274 -3 -3 -68 0 -144 6 -169 13 -648 13 -804 0 -63 -5 -122 -10 -131 -10 -13 0 -19 19 -28 98 -7 53 -14 116 -17 139 l-6 41 63 7 c230 24 738 27 978 5z m-1045 -155 c8 -71 12 -132 8 -136 -4 -3 -68 -13 -142 -23 -74 -9 -193 -28 -265 -41 -71 -13 -131 -23 -132 -21 -2 1 -14 54 -28 117 -14 63 -27 124 -30 135 -4 20 2 23 108 43 100 18 344 55 422 63 17 2 33 1 37 -2 3 -3 13 -63 22 -135z m1361 120 c115 -15 332 -51 366 -61 14 -4 13 -20 -12 -142 -14 -75 -31 -136 -36 -135 -59 11 -395 64 -447 70 l-69 8 2 85 c1 47 4 111 7 142 l6 56 32 -4 c17 -2 85 -11 151 -19z m-1975 -82 c0 -5 14 -66 30 -138 16 -71 28 -130 27 -131 -1 0 -47 -11 -102 -24 -86 -19 -353 -92 -390 -106 -11 -4 -60 117 -99 242 -6 20 1 24 78 48 90 28 422 115 444 115 6 1 12 -2 12 -6z m2611 -43 c252 -64 335 -92 331 -111 -3 -16 -83 -242 -87 -247 -1 -1 -72 17 -156 42 -85 24 -199 54 -254 66 -55 13 -104 26 -109 31 -7 6 29 241 41 262 8 13 38 8 234 -43z m-3150 -167 c12 -38 33 -97 45 -132 13 -36 23 -66 21 -67 -1 -1 -72 -27 -159 -58 -86 -31 -198 -74 -249 -96 -51 -22 -93 -39 -95 -37 -7 8 -125 250 -122 252 19 14 507 203 530 205 3 0 16 -30 29 -67z m3858 -62 c90 -37 159 -67 169 -76 9 -7 -112 -255 -122 -251 -79 35 -275 111 -361 141 -60 21 -114 41 -118 45 -5 4 12 66 38 138 l47 130 121 -43 c67 -24 169 -62 226 -84z m-1744 89 c1584 -116 3002 -894 3952 -2170 515 -691 861 -1519 992 -2375 47 -304 55 -425 56 -815 0 -382 -6 -484 -46 -765 -229 -1622 -1185 -3049 -2604 -3887 -672 -397 -1410 -634 -2235 -720 -168 -17 -812 -17 -980 0 -845 88 -1578 328 -2275 745 -1006 601 -1801 1534 -2235 2621 -208 523 -331 1064 -371 1641 -15 214 -6 707 16 905 99 894 381 1686 860 2410 664 1005 1644 1762 2770 2139 473 158 839 230 1400 274 100 8 574 6 700 -3z m2177 -286 c73 -36 196 -103 273 -147 138 -78 478 -298 489 -315 6 -9 -153 -228 -163 -225 -3 1 -77 49 -163 106 -193 129 -433 267 -636 364 l-152 73 14 33 c7 17 33 75 56 128 l42 97 53 -24 c29 -12 113 -53 187 -90z m-4812 -14 c33 -66 60 -122 60 -125 0 -3 -69 -38 -152 -78 -201 -96 -426 -225 -623 -356 -88 -58 -165 -109 -172 -114 -7 -4 -38 31 -87 103 -42 60 -76 114 -76 119 0 15 318 223 490 321 136 78 475 250 492 250 4 0 35 -54 68 -120z m-996 -579 c42 -60 76 -111 76 -113 0 -3 -54 -46 -120 -97 -65 -51 -155 -124 -199 -162 -45 -38 -84 -69 -89 -69 -5 0 -53 42 -107 93 l-99 93 42 38 c115 104 396 326 413 326 4 0 42 -49 83 -109z m6714 25 c94 -73 211 -167 286 -234 l37 -32 -92 -100 c-51 -55 -96 -100 -101 -100 -5 0 -46 32 -91 71 -45 39 -135 112 -200 162 -70 55 -116 96 -113 104 15 37 153 212 164 208 7 -3 57 -38 110 -79z m552 -485 c110 -109 200 -203 199 -207 0 -9 -202 -174 -211 -174 -3 0 -91 86 -197 190 l-192 191 92 99 c51 55 96 100 101 100 5 0 98 -89 208 -199z m-7719 92 l96 -98 -194 -191 -194 -192 -104 90 -104 91 57 65 c60 69 331 332 341 332 4 0 50 -44 102 -97z m-410 -409 c55 -47 99 -88 99 -92 0 -4 -36 -49 -80 -100 -44 -51 -118 -142 -165 -203 -61 -77 -90 -107 -100 -102 -30 17 -214 148 -215 153 -1 18 338 429 354 430 4 0 53 -38 107 -86z m8425 1 c305 -351 573 -753 793 -1192 l81 -163 -28 -14 c-15 -8 -73 -35 -130 -59 l-102 -46 -54 114 c-107 226 -283 525 -435 739 l-70 100 107 78 c59 43 109 84 111 90 6 19 -21 3 -123 -71 -54 -39 -102 -71 -106 -71 -4 0 -45 48 -91 108 -72 91 -157 194 -231 278 -19 21 -18 22 89 108 59 47 110 85 113 84 4 -2 38 -39 76 -83z m-8784 -448 c54 -37 100 -72 103 -77 3 -5 -24 -50 -61 -102 -146 -206 -324 -510 -430 -733 l-54 -113 -127 50 c-71 28 -130 53 -132 55 -8 6 157 331 241 478 150 261 332 530 351 518 7 -4 56 -38 109 -76z m9694 -994 c70 -156 181 -459 171 -469 -11 -11 -257 -82 -261 -75 -2 3 -27 67 -54 141 -28 74 -71 184 -96 243 l-45 108 77 34 c42 19 95 44 117 54 22 11 46 20 53 20 7 1 24 -25 38 -56z m-10300 11 c49 -20 103 -42 121 -49 l32 -14 -45 -108 c-25 -59 -69 -171 -97 -248 -28 -77 -51 -141 -52 -142 -2 -4 -260 69 -266 75 -14 15 186 522 206 522 6 0 51 -16 101 -36z m10497 -526 c3 -13 26 -93 51 -178 49 -166 91 -339 84 -346 -5 -4 -203 -49 -246 -56 -22 -3 -25 5 -67 167 -24 94 -57 211 -73 262 l-29 92 56 17 c31 9 90 27 131 40 94 28 87 28 93 2z m-10715 -12 c48 -14 106 -29 128 -35 l42 -11 -30 -93 c-16 -50 -49 -168 -73 -262 -29 -113 -48 -170 -57 -169 -7 1 -68 11 -135 24 -112 21 -123 25 -123 44 0 54 136 526 151 526 6 0 49 -11 97 -24z m10872 -588 c21 -98 68 -393 72 -448 l3 -54 -132 -20 c-73 -11 -135 -17 -138 -15 -2 3 -14 70 -25 150 -12 79 -31 197 -44 261 l-23 117 96 21 c53 12 110 25 126 30 50 14 53 12 65 -42z m-10985 17 c71 -14 130 -25 130 -25 1 0 -9 -53 -21 -117 -13 -65 -32 -183 -44 -263 -12 -79 -23 -146 -26 -149 -6 -6 -258 30 -267 39 -12 11 51 425 79 523 7 21 -6 22 149 -8z m-82 -564 c64 -10 119 -20 121 -22 2 -2 -1 -40 -6 -84 -23 -213 -25 -789 -3 -972 l6 -52 -43 -5 c-24 -3 -86 -8 -140 -11 -87 -6 -97 -4 -102 12 -13 47 -28 485 -22 662 7 199 22 428 31 469 6 26 7 26 158 3z m11151 2 c36 -120 39 -1113 4 -1149 -5 -5 -267 31 -273 38 -1 2 1 53 6 113 18 228 7 848 -16 953 -3 12 -4 22 -3 23 23 5 230 37 250 38 17 1 28 -5 32 -16z m4 -1178 c9 -8 -71 -541 -83 -554 -7 -6 -265 41 -270 50 -3 3 4 56 15 115 17 90 60 396 60 423 0 6 269 -27 278 -34z m-11017 -132 c10 -82 28 -199 39 -258 10 -60 18 -110 17 -111 -4 -4 -272 -53 -275 -50 -11 11 -88 543 -80 552 4 3 271 20 276 18 2 -1 12 -69 23 -151z m91 -516 c15 -67 46 -185 68 -262 21 -76 38 -140 37 -141 -11 -11 -261 -74 -267 -68 -15 15 -113 383 -135 506 -7 36 -7 37 32 44 21 4 79 15 128 25 50 9 95 18 100 18 6 1 22 -54 37 -122z m10707 92 c64 -12 120 -25 124 -29 13 -12 -115 -525 -136 -546 -3 -3 -64 13 -136 36 -108 34 -131 45 -127 58 30 98 80 284 102 381 19 85 32 121 42 121 8 0 66 -10 131 -21z m-10549 -641 c23 -68 64 -178 91 -246 27 -68 49 -127 49 -132 0 -6 -55 -37 -121 -71 -95 -47 -124 -58 -130 -47 -28 43 -208 534 -198 541 4 4 248 75 260 76 4 1 26 -54 49 -121z m10411 75 c139 -43 133 -12 48 -249 -75 -207 -124 -320 -138 -317 -28 7 -241 106 -241 113 0 5 29 82 64 172 35 89 76 200 91 246 21 64 31 82 42 78 9 -4 69 -23 134 -43z m-10225 -545 c92 -211 296 -575 447 -796 39 -58 66 -107 61 -111 -5 -5 -56 -43 -113 -85 l-103 -76 -31 43 c-66 90 -198 299 -277 437 -87 150 -260 496 -260 517 0 11 220 131 242 132 4 1 19 -27 34 -61z m10005 11 c63 -28 118 -55 123 -59 18 -17 -219 -476 -377 -730 -46 -74 -176 -269 -193 -288 -2 -3 -95 59 -232 154 -2 1 30 51 71 110 151 221 357 587 451 802 15 34 31 62 35 62 4 0 59 -23 122 -51z m-9405 -1021 c38 -51 115 -149 172 -217 57 -67 102 -124 100 -125 -2 -1 -49 -41 -105 -89 -56 -48 -104 -87 -107 -87 -8 0 -191 221 -280 338 l-76 102 112 84 c62 47 113 85 114 86 0 0 32 -42 70 -92z m8836 -5 l108 -74 -77 -101 c-103 -136 -271 -338 -282 -338 -10 0 -205 158 -209 170 -2 5 43 64 100 132 57 67 132 162 167 210 36 48 69 84 75 81 6 -4 59 -40 118 -80z m-8173 -741 c1 -4 -38 -53 -86 -109 l-87 -102 -65 59 c-60 53 -131 125 -294 296 l-59 61 107 91 107 91 188 -190 c104 -105 189 -194 189 -197z m7797 296 c57 -46 102 -89 101 -95 -3 -17 -262 -289 -333 -349 l-55 -47 -98 97 -97 97 185 189 c102 104 188 189 190 189 2 1 50 -36 107 -81z m-7654 -411 c84 -72 274 -224 296 -236 10 -6 -6 -36 -69 -124 l-82 -116 -45 32 c-54 39 -268 214 -345 282 l-56 50 92 107 c90 104 92 106 112 89 11 -10 55 -48 97 -84z m7289 -155 c-82 -73 -295 -247 -353 -289 l-44 -32 -87 104 c-48 58 -87 109 -87 114 0 5 12 17 28 26 38 25 242 190 332 269 l75 65 100 -100 100 -100 -64 -57z m-6820 -203 c177 -123 405 -258 619 -367 102 -51 186 -97 188 -102 4 -10 -86 -231 -99 -244 -10 -11 -263 111 -449 217 -234 133 -564 350 -558 367 12 33 155 227 164 221 5 -3 66 -45 135 -92z m6313 -21 c47 -56 86 -105 86 -109 0 -13 -246 -178 -435 -292 -161 -97 -498 -275 -550 -291 -18 -5 -28 10 -82 118 l-62 124 183 91 c209 105 478 262 646 380 63 44 118 80 122 81 3 0 45 -46 92 -102z m-5320 -517 c78 -32 191 -75 251 -96 61 -21 111 -39 112 -40 2 -1 -17 -60 -41 -131 -40 -120 -45 -129 -67 -126 -43 5 -496 177 -516 196 -7 6 102 256 111 256 5 0 73 -26 150 -59z m4316 -61 c33 -66 60 -123 60 -128 0 -14 -393 -171 -515 -206 -18 -5 -25 8 -63 117 -23 67 -42 127 -42 133 0 6 53 30 118 53 64 23 173 66 242 95 69 30 128 54 132 55 5 0 35 -53 68 -119z m-3520 -196 c63 -15 116 -28 117 -28 1 -1 -11 -60 -27 -131 -16 -72 -30 -133 -30 -138 0 -4 -10 -5 -22 -2 -168 37 -349 85 -475 126 l-61 20 44 133 45 133 147 -43 c81 -24 199 -56 262 -70z m2980 -22 c34 -98 40 -126 30 -132 -30 -19 -446 -132 -519 -142 -23 -3 -26 2 -52 112 -16 63 -28 124 -29 136 0 19 14 24 133 53 72 18 188 49 257 70 69 21 128 35 131 32 3 -3 25 -62 49 -129z m-2650 -46 c80 -13 186 -30 235 -36 50 -6 95 -13 101 -15 7 -2 6 -40 -2 -126 -7 -68 -13 -130 -13 -136 -1 -18 -46 -16 -202 7 -118 18 -361 60 -366 64 -2 1 39 202 52 254 5 19 11 23 28 19 12 -3 87 -17 167 -31z m2059 -3 c22 -78 55 -233 50 -237 -17 -16 -553 -96 -565 -84 -6 7 -33 202 -34 248 0 26 1 26 138 44 75 9 191 28 257 40 66 13 125 24 132 25 7 0 17 -16 22 -36z m-1519 -63 c167 -14 610 -13 789 0 79 6 146 8 149 5 5 -5 42 -267 38 -272 -8 -11 -362 -27 -586 -27 -232 0 -575 16 -586 27 -2 2 22 256 25 275 1 4 41 2 171 -8z"/>
<path d="M10231 9137 c-53 -17 -115 -83 -140 -150 -30 -81 -28 -107 7 -107 26 -1 26 -1 7 -16 -11 -8 -207 -120 -435 -248 -608 -341 -1627 -927 -2698 -1552 -276 -162 -505 -294 -507 -294 -3 0 -5 38 -5 85 l0 85 35 22 35 23 0 628 0 627 -105 0 -105 0 0 -627 0 -628 30 -20 c30 -20 30 -21 30 -113 l0 -94 -32 20 c-18 11 -220 123 -448 249 -571 316 -1251 698 -1772 994 -261 149 -447 249 -462 249 -29 0 -35 -23 -13 -51 7 -8 127 -102 267 -209 445 -338 2071 -1588 2128 -1636 2 -1 -39 -61 -92 -133 -53 -72 -96 -135 -96 -141 0 -5 10 -10 23 -10 21 0 347 33 450 45 l47 6 0 -1906 0 -1905 -22 0 c-40 -1 -102 -35 -141 -79 -77 -86 -109 -206 -109 -421 -1 -164 11 -238 53 -327 48 -102 126 -153 231 -153 151 0 247 110 256 294 8 164 -35 267 -132 312 l-53 24 -2 76 c-1 51 1 74 8 69 6 -3 11 -13 11 -21 0 -17 5 -17 87 -3 35 6 63 15 63 20 0 4 -9 32 -20 62 -21 56 -64 104 -117 131 l-33 16 0 1906 c0 1584 2 1906 14 1910 11 4 377 -39 434 -51 35 -8 27 19 -43 145 -35 63 -61 118 -57 122 7 6 1181 853 2619 1889 444 320 813 589 820 598 17 22 16 48 -3 59 -15 8 -15 12 -1 39 35 67 143 71 178 6 18 -34 16 -112 -6 -156 -10 -21 -68 -93 -129 -160 -180 -197 -226 -275 -226 -387 l0 -70 273 2 272 3 3 78 3 77 -181 0 c-193 0 -197 1 -163 50 9 14 71 81 137 150 150 155 179 207 185 327 4 109 -15 168 -74 221 -23 22 -60 45 -81 51 -49 14 -158 12 -203 -2z m-3851 -7061 l0 -104 -31 -11 c-17 -6 -44 -25 -61 -43 l-31 -33 6 81 c3 45 14 100 23 123 15 39 64 91 85 91 5 0 9 -47 9 -104z m0 -406 c0 -189 -4 -198 -60 -142 -54 54 -69 191 -27 253 20 30 59 58 80 59 4 0 7 -76 7 -170z m103 93 c21 -75 17 -165 -8 -199 -10 -15 -12 3 -12 99 0 107 8 145 20 100z"/>
</g>
</svg>
